inDegrees=yes
name=ik_Xsens_quaternion
DataType=double
version=3
OpenSimVersion=4.4-2022-07-23-0e9fedc
endheader
time	pelvis_tilt	pelvis_list	pelvis_rotation	pelvis_tx	pelvis_ty	pelvis_tz	hip_flexion_r	hip_adduction_r	hip_rotation_r	knee_angle_r	knee_angle_r_beta	ankle_angle_r	subtalar_angle_r	mtp_angle_r	hip_flexion_l	hip_adduction_l	hip_rotation_l	knee_angle_l	knee_angle_l_beta	ankle_angle_l	subtalar_angle_l	mtp_angle_l	lumbar_extension	lumbar_bending	lumbar_rotation	arm_flex_r	arm_add_r	arm_rot_r	elbow_flex_r	pro_sup_r	wrist_flex_r	wrist_dev_r	arm_flex_l	arm_add_l	arm_rot_l	elbow_flex_l	pro_sup_l	wrist_flex_l	wrist_dev_l
28.35	0	0	0	0	0.93	0	0	0	0	0	1.593814430652329e-41	0	0	0	0	0	0	0	1.258885281415139e-41	0	0	0	0	0	0	0	0	0	0	1.104888692052552e-38	0	0	150.9699162093538	-81.06536305841013	166.0016069076605	-6.437731597264134	0.004185258152385443	0	0
28.36666666666667	0	0	0	0	0.93	0	0	0	0	0	-2.984653625134714e-40	0	0	0	0	0	0	0	-2.984653625134714e-40	0	0	0	0	0	0	0	0	0	0	3.062702582339642e-38	0	0	146.3451797990177	-81.87504041041748	160.705075765174	-6.380223134468414	0.004185258152385443	0	0
28.38333333333333	0	0	0	0	0.93	0	0	0	0	0	0	0	0	0	0	0	0	0	0	0	0	0	0	0	0	0	0	0	0	0	0	0	140.5899210240373	-82.68909797843624	154.3376375342879	-6.396178860838826	0.004185258145952626	0	0
28.4	0	0	0	0	0.93	0	0	0	0	0	0	0	0	0	0	0	0	0	0	0	0	0	0	0	0	0	0	0	0	0	0	0	133.97838659347	-83.46988225455689	147.1934639817722	-6.429092477293965	0.004160947141059194	0	0
28.41666666666667	-1.345665839414051e-27	4.330362256741081e-19	-6.467072437239392e-28	2.023182014801791e-22	0.93	-4.247562249593535e-22	-1.143071263146514e-40	2.695689615306932e-22	-7.874861261712912e-37	0	-4.71951309738411e-17	-9.562587495753393e-22	-1.952735420064832e-25	2.18733048098244e-21	-6.189310445384081e-20	7.739725850494792e-38	-1.233223957220767e-20	0	-4.719534673578191e-17	6.245026344532764e-21	6.507620803946976e-27	-2.306006304376585e-21	-9.78868173708026e-28	-1.077645223040908e-21	-3.351850859904411e-27	-1.3627865393823e-22	4.192786043506655e-19	1.703147375017817e-18	0	0	-1.300004559674266e-19	-3.426259495585914e-21	126.0529260393899	-84.14658838985727	138.770478400812	-6.470404886034784	0.004159921496869542	-1.893014354617756e-19	-1.270324950910213e-19
28.43333333333333	4.572240728665766e-26	-2.756816156964475e-17	-2.722859213272173e-26	-1.799699341636691e-24	0.93	-1.231362648527636e-26	-1.765195580579962e-24	-6.541757487483877e-23	2.061023434784856e-24	0	-8.054913956594153e-19	9.172919990985783e-15	-3.33945141332867e-15	-4.704406452015646e-18	3.698783493968125e-24	-1.252027587671286e-17	-3.932707322852481e-20	0	-9.892639271871045e-16	-6.167936935207995e-15	-9.042423511694719e-16	1.857801148316359e-19	1.388344018866395e-15	2.014211988366561e-17	-3.251340856380575e-18	1.027605650555139e-16	1.697554862215307e-15	1.293947976688902e-14	0	0	-4.038178507873995e-23	9.14098451522267e-21	116.7426308701918	-84.67683273525621	128.9341617145522	-6.442936678836668	0.004159921404066766	2.371271234324083e-21	7.620613213710764e-21
28.45	7.138601311355707e-26	6.20021672434599e-17	-6.908339556424223e-26	-2.522903815035022e-22	0.93	8.69944234238346e-22	-5.543201085451082e-34	-1.984849366550533e-18	6.648325601769951e-34	0	-3.491663397410122e-17	1.536423381225924e-16	-2.796905447535714e-23	-2.478186111127235e-16	-4.187648543523646e-18	-5.761179353954262e-34	3.104256307511307e-17	0	-3.491665174719878e-17	1.494989192749245e-16	2.396570804710489e-23	5.75139467302078e-18	7.138600853689741e-26	-3.069186192977463e-17	-7.405416212436465e-26	5.637545641551618e-25	-2.208061510937636e-15	1.071757416155562e-15	0	0	2.297777688915479e-16	3.277143466268543e-17	106.1246528303437	-85.03901356250164	117.6818664059161	-6.316775276490783	0.004159921363225824	-6.357117520199012e-17	-1.204728924335576e-17
28.46666666666667	-2.771978382257916e-27	1.395247447739529e-19	-1.385598043913066e-26	-1.179632157712935e-23	0.93	-5.580992721853853e-25	1.477234935233828e-41	3.352882444296302e-21	-1.007942106402666e-37	0	-1.42313487819327e-17	-1.368124057773518e-18	-1.815687158686227e-24	-3.763628962176634e-19	7.633271069187295e-19	2.018608883094271e-36	4.490007971656952e-19	0	-1.423127436969807e-17	-1.416156645851007e-18	2.665916842142066e-24	-8.48780060935155e-21	-2.540516328439398e-28	-2.468521907379658e-18	-1.265568579005415e-26	2.138310950971918e-25	2.70829937070347e-18	8.282170287078117e-18	0	0	6.771711369126882e-19	4.682904920735025e-19	93.99740536858424	-85.21779890075541	104.8862528283354	-6.172234371373776	0.004159921387455677	-4.047721787324406e-18	-1.896634626049178e-18
